<?xml version="1.0" encoding="UTF-8"?>
<svg id="Place_Art_Here" data-name="Place Art Here" xmlns="http://www.w3.org/2000/svg" viewBox="0 0 258.21 830.98">
  <rect x="-6.82" y="1.35" width="1440" height="828" fill="none" stroke="#231f20" stroke-miterlimit="10" stroke-width=".25"/>
  <g>
    <path d="M141.52,267.74c-10,0-18.13-8.13-18.13-18.13s8.13-18.13,18.13-18.13c10,0,18.13,8.13,18.13,18.13s-8.13,18.13-18.13,18.13" fill="#00d9e5"/>
    <path d="M141.45,95.25c-9.78,0-17.74-7.96-17.74-17.74,0-9.78,7.96-17.74,17.74-17.74,9.78,0,17.74,7.96,17.74,17.74,0,9.78-7.96,17.74-17.74,17.74" fill="#54c8e8"/>
    <path d="M141.45,342.86c-9.78,0-17.74-7.96-17.74-17.74s7.96-17.74,17.74-17.74,17.74,7.96,17.74,17.74-7.96,17.74-17.74,17.74" fill="#c6ff95"/>
    <path d="M141.52,403.38c-10,0-18.13-8.13-18.13-18.13s8.13-18.13,18.13-18.13c10,0,18.13,8.13,18.13,18.13,0,10-8.13,18.13-18.13,18.13" fill="#00d9e5"/>
    <path d="M141.52,583.59c-10,0-18.13-8.13-18.13-18.13s8.13-18.13,18.13-18.13c10,0,18.13,8.13,18.13,18.13,0,10-8.13,18.13-18.13,18.13" fill="#00d9e5"/>
    <path d="M43.46,368.62c-5.39,0-9.77-4.38-9.77-9.77,0-5.39,4.38-9.77,9.77-9.77s9.77,4.38,9.77,9.77-4.38,9.77-9.77,9.77" fill="#c6ff95"/>
    <path d="M43.46,403.5c-5.39,0-9.77-4.38-9.77-9.77s4.38-9.77,9.77-9.77,9.77,4.38,9.77,9.77-4.38,9.77-9.77,9.77" fill="#c6ff95"/>
    <path d="M235.1,237c-5.51,0-9.99,4.48-9.99,9.99s4.48,9.99,9.99,9.99,9.99-4.48,9.99-9.99-4.48-9.99-9.99-9.99" fill="#00d9e5"/>
    <path d="M233,211.56c-5.39,0-9.77,4.38-9.77,9.77s4.38,9.77,9.77,9.77,9.77-4.38,9.77-9.77c0-5.39-4.38-9.77-9.77-9.77" fill="#c6ff95"/>
    <path d="M235.1,305.62c-5.51,0-9.99,4.48-9.99,9.99s4.48,9.99,9.99,9.99c5.51,0,9.99-4.48,9.99-9.99s-4.48-9.99-9.99-9.99" fill="#00d9e5"/>
    <path d="M235.1,77.51c-5.51,0-9.99,4.48-9.99,9.99s4.48,9.99,9.99,9.99,9.99-4.48,9.99-9.99-4.48-9.99-9.99-9.99" fill="#00d9e5"/>
    <path d="M41.37,481.24c-5.51,0-9.99-4.48-9.99-9.99s4.48-9.99,9.99-9.99c5.51,0,9.99,4.48,9.99,9.99s-4.48,9.99-9.99,9.99" fill="#00d9e5"/>
    <path d="M41.37,638.39c-5.51,0-9.99-4.48-9.99-9.99s4.48-9.99,9.99-9.99c5.51,0,9.99,4.48,9.99,9.99s-4.48,9.99-9.99,9.99" fill="#00d9e5"/>
    <path d="M41.37,673.12c-5.51,0-9.99-4.48-9.99-9.99s4.48-9.99,9.99-9.99c5.51,0,9.99,4.48,9.99,9.99,0,5.51-4.48,9.99-9.99,9.99" fill="#00d9e5"/>
    <path d="M43.46,59.83c-5.39,0-9.77-4.38-9.77-9.77s4.38-9.77,9.77-9.77,9.77,4.38,9.77,9.77c0,5.39-4.38,9.77-9.77,9.77" fill="#00d9e5"/>
    <path d="M232.3,31.43c-5.39,0-9.77,4.38-9.77,9.77s4.38,9.77,9.77,9.77c5.39,0,9.77-4.38,9.77-9.77s-4.38-9.77-9.77-9.77" fill="#c6ff95"/>
  </g>
</svg>