<?xml version="1.0" encoding="UTF-8"?>
<svg id="Place_Art_Here" data-name="Place Art Here" xmlns="http://www.w3.org/2000/svg" viewBox="0 0 1438.01 830.98">
  <g>
    <path d="M1121.24,783.86c5.69,0,10.32-4.63,10.32-10.32,0-5.69-4.63-10.32-10.32-10.32-5.69,0-10.32,4.63-10.32,10.32,0,5.69,4.63,10.32,10.32,10.32" fill="#00d9e5"/>
    <path d="M1121.24,712.94c5.69,0,10.32-4.63,10.32-10.32,0-5.69-4.63-10.32-10.32-10.32-5.69,0-10.32,4.63-10.32,10.32,0,5.69,4.63,10.32,10.32,10.32" fill="#00d9e5"/>
    <path d="M1217.96,752.1c10.33,0,18.74,8.41,18.74,18.74,0,10.33-8.41,18.74-18.74,18.74-10.33,0-18.74-8.41-18.74-18.74,0-10.33,8.41-18.74,18.74-18.74" fill="#00d9e5"/>
    <path d="M1217.96,682c10.33,0,18.74,8.41,18.74,18.74s-8.41,18.74-18.74,18.74c-10.33,0-18.74-8.41-18.74-18.74,0-10.33,8.41-18.74,18.74-18.74" fill="#c6ff95"/>
    <path d="M1217.96,611.9c10.33,0,18.74,8.41,18.74,18.74s-8.41,18.74-18.74,18.74c-10.33,0-18.74-8.41-18.74-18.74s8.41-18.74,18.74-18.74" fill="#00d9e5"/>
    <path d="M1321.47,654.79c5.69,0,10.32,4.63,10.32,10.32,0,5.69-4.63,10.32-10.32,10.32s-10.32-4.63-10.32-10.32c0-5.69,4.63-10.32,10.32-10.32" fill="#c6ff95"/>
    <path d="M1321.47,617.94c5.69,0,10.32,4.63,10.32,10.32,0,5.69-4.63,10.32-10.32,10.32s-10.32-4.63-10.32-10.32c0-5.69,4.63-10.32,10.32-10.32" fill="#c6ff95"/>
    <path d="M1397.77,696.1c5.69,0,10.32,4.63,10.32,10.32,0,5.69-4.63,10.32-10.32,10.32s-10.32-4.63-10.32-10.32c0-5.69,4.63-10.32,10.32-10.32" fill="#00d9e5"/>
    <path d="M1397.77,659.25c5.69,0,10.32,4.63,10.32,10.32,0,5.69-4.63,10.32-10.32,10.32-5.69,0-10.32-4.63-10.32-10.32,0-5.69,4.63-10.32,10.32-10.32" fill="#00d9e5"/>
    <path d="M1397.77,732.94c5.69,0,10.32,4.63,10.32,10.32,0,5.69-4.63,10.32-10.32,10.32-5.69,0-10.32-4.63-10.32-10.32,0-5.69,4.63-10.32,10.32-10.32" fill="#00d9e5"/>
    <path d="M1121.24,820.71c5.69,0,10.32-4.63,10.32-10.32,0-5.69-4.63-10.32-10.32-10.32-5.69,0-10.32,4.63-10.32,10.32,0,5.69,4.63,10.32,10.32,10.32" fill="#c6ff95"/>
    <path d="M1217.96,425.65c10.33,0,18.74,8.41,18.74,18.74s-8.41,18.74-18.74,18.74c-10.33,0-18.74-8.41-18.74-18.74,0-10.33,8.41-18.74,18.74-18.74" fill="#00d9e5"/>
    <path d="M1397.77,479.06c5.69,0,10.32,4.63,10.32,10.32,0,5.69-4.63,10.32-10.32,10.32-5.69,0-10.32-4.63-10.32-10.32,0-5.69,4.63-10.32,10.32-10.32" fill="#00d9e5"/>
    <path d="M1321.47,531.43c5.69,0,10.32,4.63,10.32,10.32,0,5.69-4.63,10.32-10.32,10.32-5.69,0-10.32-4.63-10.32-10.32,0-5.69,4.63-10.32,10.32-10.32" fill="#00d9e5"/>
    <path d="M1321.47,369.02c5.69,0,10.32,4.63,10.32,10.32,0,5.69-4.63,10.32-10.32,10.32-5.69,0-10.32-4.63-10.32-10.32,0-5.69,4.63-10.32,10.32-10.32" fill="#00d9e5"/>
    <path d="M1321.47,333.11c5.69,0,10.32,4.63,10.32,10.32,0,5.69-4.63,10.32-10.32,10.32-5.69,0-10.32-4.63-10.32-10.32,0-5.69,4.63-10.32,10.32-10.32" fill="#00d9e5"/>
  </g>
  <g>
    <path d="M141.52,267.74c-10,0-18.13-8.13-18.13-18.13s8.13-18.13,18.13-18.13c10,0,18.13,8.13,18.13,18.13s-8.13,18.13-18.13,18.13" fill="#00d9e5"/>
    <path d="M141.45,95.25c-9.78,0-17.74-7.96-17.74-17.74,0-9.78,7.96-17.74,17.74-17.74,9.78,0,17.74,7.96,17.74,17.74,0,9.78-7.96,17.74-17.74,17.74" fill="#54c8e8"/>
    <path d="M141.45,342.86c-9.78,0-17.74-7.96-17.74-17.74s7.96-17.74,17.74-17.74,17.74,7.96,17.74,17.74-7.96,17.74-17.74,17.74" fill="#c6ff95"/>
    <path d="M141.52,403.38c-10,0-18.13-8.13-18.13-18.13s8.13-18.13,18.13-18.13c10,0,18.13,8.13,18.13,18.13,0,10-8.13,18.13-18.13,18.13" fill="#00d9e5"/>
    <path d="M141.52,583.59c-10,0-18.13-8.13-18.13-18.13s8.13-18.13,18.13-18.13c10,0,18.13,8.13,18.13,18.13,0,10-8.13,18.13-18.13,18.13" fill="#00d9e5"/>
    <path d="M43.46,368.62c-5.39,0-9.77-4.38-9.77-9.77,0-5.39,4.38-9.77,9.77-9.77s9.77,4.38,9.77,9.77-4.38,9.77-9.77,9.77" fill="#c6ff95"/>
    <path d="M43.46,403.5c-5.39,0-9.77-4.38-9.77-9.77s4.38-9.77,9.77-9.77,9.77,4.38,9.77,9.77-4.38,9.77-9.77,9.77" fill="#c6ff95"/>
    <path d="M235.1,237c-5.51,0-9.99,4.48-9.99,9.99s4.48,9.99,9.99,9.99,9.99-4.48,9.99-9.99-4.48-9.99-9.99-9.99" fill="#00d9e5"/>
    <path d="M233,211.56c-5.39,0-9.77,4.38-9.77,9.77s4.38,9.77,9.77,9.77,9.77-4.38,9.77-9.77c0-5.39-4.38-9.77-9.77-9.77" fill="#c6ff95"/>
    <path d="M235.1,305.62c-5.51,0-9.99,4.48-9.99,9.99s4.48,9.99,9.99,9.99c5.51,0,9.99-4.48,9.99-9.99s-4.48-9.99-9.99-9.99" fill="#00d9e5"/>
    <path d="M235.1,77.51c-5.51,0-9.99,4.48-9.99,9.99s4.48,9.99,9.99,9.99,9.99-4.48,9.99-9.99-4.48-9.99-9.99-9.99" fill="#00d9e5"/>
    <path d="M41.37,481.24c-5.51,0-9.99-4.48-9.99-9.99s4.48-9.99,9.99-9.99c5.51,0,9.99,4.48,9.99,9.99s-4.48,9.99-9.99,9.99" fill="#00d9e5"/>
    <path d="M41.37,638.39c-5.51,0-9.99-4.48-9.99-9.99s4.48-9.99,9.99-9.99c5.51,0,9.99,4.48,9.99,9.99s-4.48,9.99-9.99,9.99" fill="#00d9e5"/>
    <path d="M41.37,673.12c-5.51,0-9.99-4.48-9.99-9.99s4.48-9.99,9.99-9.99c5.51,0,9.99,4.48,9.99,9.99,0,5.51-4.48,9.99-9.99,9.99" fill="#00d9e5"/>
    <path d="M43.46,59.83c-5.39,0-9.77-4.38-9.77-9.77s4.38-9.77,9.77-9.77,9.77,4.38,9.77,9.77c0,5.39-4.38,9.77-9.77,9.77" fill="#00d9e5"/>
    <path d="M232.3,31.43c-5.39,0-9.77,4.38-9.77,9.77s4.38,9.77,9.77,9.77c5.39,0,9.77-4.38,9.77-9.77s-4.38-9.77-9.77-9.77" fill="#c6ff95"/>
  </g>
</svg>