<?xml version="1.0" encoding="UTF-8"?>
<svg id="Place_Art_Here" data-name="Place Art Here" xmlns="http://www.w3.org/2000/svg" viewBox="0 0 323.75 830.98">
  <rect x="-1101.22" y="1.35" width="1440" height="828" fill="none" stroke="#231f20" stroke-miterlimit="10" stroke-width=".25"/>
  <g>
    <path d="M26.84,783.86c5.69,0,10.32-4.63,10.32-10.32,0-5.69-4.63-10.32-10.32-10.32-5.69,0-10.32,4.63-10.32,10.32,0,5.69,4.63,10.32,10.32,10.32" fill="#00d9e5"/>
    <path d="M26.84,712.94c5.69,0,10.32-4.63,10.32-10.32,0-5.69-4.63-10.32-10.32-10.32-5.69,0-10.32,4.63-10.32,10.32,0,5.69,4.63,10.32,10.32,10.32" fill="#00d9e5"/>
    <path d="M123.56,752.1c10.33,0,18.74,8.41,18.74,18.74,0,10.33-8.41,18.74-18.74,18.74-10.33,0-18.74-8.41-18.74-18.74,0-10.33,8.41-18.74,18.74-18.74" fill="#00d9e5"/>
    <path d="M123.56,682c10.33,0,18.74,8.41,18.74,18.74s-8.41,18.74-18.74,18.74c-10.33,0-18.74-8.41-18.74-18.74,0-10.33,8.41-18.74,18.74-18.74" fill="#c6ff95"/>
    <path d="M123.56,611.9c10.33,0,18.74,8.41,18.74,18.74s-8.41,18.74-18.74,18.74c-10.33,0-18.74-8.41-18.74-18.74s8.41-18.74,18.74-18.74" fill="#00d9e5"/>
    <path d="M227.07,654.79c5.69,0,10.32,4.63,10.32,10.32,0,5.69-4.63,10.32-10.32,10.32s-10.32-4.63-10.32-10.32c0-5.69,4.63-10.32,10.32-10.32" fill="#c6ff95"/>
    <path d="M227.07,617.94c5.69,0,10.32,4.63,10.32,10.32,0,5.69-4.63,10.32-10.32,10.32s-10.32-4.63-10.32-10.32c0-5.69,4.63-10.32,10.32-10.32" fill="#c6ff95"/>
    <path d="M303.37,696.1c5.69,0,10.32,4.63,10.32,10.32,0,5.69-4.63,10.32-10.32,10.32s-10.32-4.63-10.32-10.32c0-5.69,4.63-10.32,10.32-10.32" fill="#00d9e5"/>
    <path d="M303.37,659.25c5.69,0,10.32,4.63,10.32,10.32,0,5.69-4.63,10.32-10.32,10.32-5.69,0-10.32-4.63-10.32-10.32,0-5.69,4.63-10.32,10.32-10.32" fill="#00d9e5"/>
    <path d="M303.37,732.94c5.69,0,10.32,4.63,10.32,10.32,0,5.69-4.63,10.32-10.32,10.32-5.69,0-10.32-4.63-10.32-10.32,0-5.69,4.63-10.32,10.32-10.32" fill="#00d9e5"/>
    <path d="M26.84,820.71c5.69,0,10.32-4.63,10.32-10.32,0-5.69-4.63-10.32-10.32-10.32-5.69,0-10.32,4.63-10.32,10.32,0,5.69,4.63,10.32,10.32,10.32" fill="#c6ff95"/>
    <path d="M123.56,425.65c10.33,0,18.74,8.41,18.74,18.74s-8.41,18.74-18.74,18.74c-10.33,0-18.74-8.41-18.74-18.74,0-10.33,8.41-18.74,18.74-18.74" fill="#00d9e5"/>
    <path d="M303.37,479.06c5.69,0,10.32,4.63,10.32,10.32,0,5.69-4.63,10.32-10.32,10.32-5.69,0-10.32-4.63-10.32-10.32,0-5.69,4.63-10.32,10.32-10.32" fill="#00d9e5"/>
    <path d="M227.07,531.43c5.69,0,10.32,4.63,10.32,10.32,0,5.69-4.63,10.32-10.32,10.32-5.69,0-10.32-4.63-10.32-10.32,0-5.69,4.63-10.32,10.32-10.32" fill="#00d9e5"/>
    <path d="M227.07,369.02c5.69,0,10.32,4.63,10.32,10.32,0,5.69-4.63,10.32-10.32,10.32-5.69,0-10.32-4.63-10.32-10.32,0-5.69,4.63-10.32,10.32-10.32" fill="#00d9e5"/>
    <path d="M227.07,333.11c5.69,0,10.32,4.63,10.32,10.32,0,5.69-4.63,10.32-10.32,10.32-5.69,0-10.32-4.63-10.32-10.32,0-5.69,4.63-10.32,10.32-10.32" fill="#00d9e5"/>
  </g>
</svg>